# xmcd
#
# Track frame offsets:
# 150
# 14845
# 33631
# 46965
# 63113
# 82329
# 102057
# 117470
# 143767
# 159929
# 176279
# 195020
# 210471
# 226118
# 239025
#
# Disc length: 3414 seconds
#
#
# Revision: 1
# Processed by: cddbd v1.5.2PL0 Copyright (c) Steve Scherf et al.
# Submitted via: FreeRIP 2.53 
#
DISCID=c10d540f
DTITLE=LEONARDO - LEONARDO CANTA GRANDES SUCESSOS VOL.2
DYEAR=0006
DGENRE=Country
TTITLE0=01 TUDO PASSARA
TTITLE1=02 HEY
TTITLE2=03 EU SO TENHO UM CAMNHO
TTITLE3=04 O QUE E QUE HA
TTITLE4=05 DEUS, O QUE FAZER?
TTITLE5=06 ME ESQUECI DE VIVER
TTITLE6=07 SE AINDA EXISTE AMOR
TTITLE7=08 GAROTO DE ALUGUEL
TTITLE8=09 A ULTIMA VEZ
TTITLE9=10 DESENCONTRO DE PRIMAVERA
TTITLE10=11 LEMBRANÇAS
TTITLE11=12 SOL DE PRIMAVERA
TTITLE12=13 DUAS VEZES VOCE
TTITLE13=14 SERENATA
TTITLE14=15 PAREÇO UM MENINO
EXTD=
EXTT0=
EXTT1=
EXTT2=
EXTT3=
EXTT4=
EXTT5=
EXTT6=
EXTT7=
EXTT8=
EXTT9=
EXTT10=
EXTT11=
EXTT12=
EXTT13=
EXTT14=
PLAYORDER=
